<svg id="Слой_1" data-name="Слой 1" xmlns="http://www.w3.org/2000/svg" viewBox="0 0 580.31 555.99"><defs><style>.cls-1{fill:#fefefe;}.cls-2{fill:#010916;}.cls-3{fill:#b30237;}.cls-4{fill:#9f8ca0;}.cls-5{fill:#b30139;}.cls-6{fill:#b00136;}.cls-7{fill:#b60139;}.cls-8{fill:#b40239;}.cls-9{fill:#d7d2d9;}.cls-10{fill:#a90131;}.cls-11{fill:#eae7ea;}.cls-12{fill:#a30532;}.cls-13{fill:#a60335;}.cls-14{fill:#040b1c;}.cls-15{fill:#8a012a;}.cls-16{fill:#93002d;}.cls-17{fill:#ab0034;}.cls-18{fill:#9a8b9f;}.cls-19{fill:#a50131;}.cls-20{fill:#8b012b;}.cls-21{fill:#fcfdfc;}.cls-22{fill:#a19aa2;}.cls-23{fill:#9f93a5;}.cls-24{fill:#a295a7;}.cls-25{fill:#94032d;}.cls-26{fill:#9c012e;}.cls-27{fill:#eae8ec;}.cls-28{fill:#fdfdfd;}.cls-29{fill:#bd0338;}.cls-30{fill:#5f1839;}.cls-31{fill:#5c132a;}.cls-32{fill:#601737;}.cls-33{fill:#571734;}.cls-34{fill:#621228;}.cls-35{fill:#581c36;}.cls-36{fill:#641b30;}.cls-37{fill:#5e1931;}.cls-38{fill:#040b15;}.cls-39{fill:#fcf7f9;}.cls-40{fill:#010914;}.cls-41{fill:#948e99;}</style></defs><title>J-Bot-logo</title><path class="cls-1" d="M165.76,473.72a4.9,4.9,0,0,0-1.28-.19C164.92,473.58,165.35,473.65,165.76,473.72Z"/><path class="cls-1" d="M298.56,521.1c-16.49,0-33-.07-49.47.1a45.89,45.89,0,0,1-25.11-7,12.46,12.46,0,0,0-7-1.95c-8.17.06-16.31.08-24.3,2.18-10.18,2.67-18.49,8.2-25.8,15.31A299.33,299.33,0,0,0,290,556c2.92,0,5.82-.06,8.71-.14Z"/><path class="cls-1" d="M71.47,459.13c3.46-.77,4.78-6.09,9.48-4.3,3.37,1.28,6.87,2.44,10.19,3.55,4.58,1.54,9.22,5.4,14.81,3.06.34-.14,1.21,1,1.83,1.51l-.09-1.87a1.92,1.92,0,0,0,.29-.68,4.48,4.48,0,0,1-.29.68c-.17-2.67-3.19-2.48-4.38-4.33,1.53-1.93,3.74.69,5.24-.79,1.66-3.49,3.88-6.21,8.24-6,1.29.06,1.82-.1,1.88-1.84.35-9.88,8.25-14.43,17-9.79,1.9,1,3,.84,4.8-.12,7.48-4,13.82.08,13.58,8.41,0,1.07-1.16,2.84,1.36,2.63l1.74-1c3.54-1.93,6.56-4.47,8.12-8.23.4-1-10.19-8.4-11.94-8.65-10.68-1.54-19.52-7.32-28.64-12.44-2.61-1.46-5.12-4.39-7.62-4.32-1.79.05-3.42,4-5.22,6.13-8.29,9.73-19.09,13-31.4,11.63-6.27-.71-12.44-2.28-18.65-3.47-1.48-.28-3.23-.28-2-2.67C65,416,71,406.6,82.11,401.62a33.49,33.49,0,0,1,16.43-2.73c-5.11-5.25-10.06-9.62-14.09-14.72-3.16-4-6.15-4.77-11.17-4.12-15.07,2-27.14-3.72-35.28-16.67-6-9.54-8.36-20.19-8.16-31.45,0-2.31.43-3.3,3.07-2.91,15.35,2.24,29.48,6.91,40.1,19.1,2,2.27,4,4.56,5.17,7.3,9.93,23.9,29.55,38.5,50,52.3a81.5,81.5,0,0,0,16,8.86c-2.58-4.11-4.55-7.29-6.58-10.44a91.87,91.87,0,0,1-12.43-29.23c-.54-2.32-1.22-3.43-3.9-4-22.61-4.59-36.59-21.89-36.63-45.05q-.06-33.5,0-67,0-22.33,17.24-36.64c1.25-1,2.3-2.32,3.45-3.48h0c1.9-9.8,7.08-18.18,11.64-26.81a138.23,138.23,0,0,1,12.75-20.15c5.07-7.75,9.13-16.1,14.71-23.58a124.46,124.46,0,0,1,44.35-37.07c2.79-1.41,3.73-2.9,3.67-6q-.28-16.22.08-32.44c.09-3.84-.9-6.1-4.34-8.36-9.42-6.18-13.65-15.29-11.93-26.56C178,28.25,185,21,196.16,18c12.47-3.35,25.06,3.5,30.18,16,4.82,11.76,0,26.74-10.93,32.56-3.24,1.71-4.06,3.55-4,6.88.24,9.47.18,19,.23,28.44h0a221.06,221.06,0,0,1,69.57-23.45,86.3,86.3,0,0,1,13.4-1.25c3.47,0,4.43-1,4.41-4.53-.12-22.29.14-44.58-.07-66.88,0-3.32.64-5,2.67-5.56C297.79.1,293.92,0,290,0,129.85,0,0,124.46,0,278c0,69.68,26.75,133.37,70.93,182.15A.94.94,0,0,1,71.47,459.13ZM103.23,92.45A31.3,31.3,0,0,1,134.77,124c0,17.71-14.65,32.81-31.77,32.84-17.6,0-32.15-15.2-32-33.51C71.1,105.89,85.12,92.45,103.23,92.45ZM47,202a8.36,8.36,0,0,1,8.52,8.49c-.13,4.49-4.25,8-9.18,7.86a7.83,7.83,0,0,1-7.59-8.19A8.11,8.11,0,0,1,47,202Zm-7.3,55.26a9.82,9.82,0,0,1-.46,19.63,9.7,9.7,0,0,1-9.64-10A10,10,0,0,1,39.7,257.22Z"/><path class="cls-2" d="M217,512.23a12.46,12.46,0,0,1,7,1.95,45.89,45.89,0,0,0,25.11,7c16.49-.17,33-.08,49.47-.1,15.79-.06,31.58-.28,47.36-.11a46.13,46.13,0,0,0,24.22-6.44,12.45,12.45,0,0,1,7.06-1.87c7.29.32,14.61-.26,21.87,1.05a52.49,52.49,0,0,1,24.6,11,288.87,288.87,0,0,0,25.68-14.46c-.47-.61-.94-1.22-1.35-1.86-11.1-17.37-22.84-34.3-35.07-50.89-2.23-3-2-4.74,1.24-6.46a47.74,47.74,0,0,0,12.1-8.72c3.09-3.21,4.77-1.86,7.15.61,14,14.5,28.69,28.32,42.14,43.35.92,1,1.93,2,2.93,3q5.77-4.74,11.29-9.74c-15.41-15.15-30.79-30.32-46.33-45.33-2.67-2.59-3.64-4-.67-7.38a164.6,164.6,0,0,0,13.54-18.42c2.43-3.71,3.95-4.54,8-1.56,18.51,13.59,37.3,26.8,56,40.09a278.79,278.79,0,0,0,18.25-25.63c-13.5-9.25-27.8-17.17-41.73-25.7-7.51-4.6-14.93-9.38-23.09-12.81-1.52-.64-3.43-1.59-2.66-3.58.88-2.24-.08-5.51,3.65-6.39,9.47-2.24,18.45-5.53,25.37-12.87,1.63-1.73,3.66-1.19,5.59-.43l53.88,21.2A267,267,0,0,0,570,350.63a8.87,8.87,0,0,0-2.93-1.09c-17.16-4.61-34.07-10.07-51-15.48-3.19-1-4.56-2.32-4.38-5.87.33-6.64.14-13.31.12-20,0-3.81,1.35-5.61,5.64-5.28,20.31,1.55,40.67,2.42,60.76,6a268.6,268.6,0,0,0,1.81-31c0-1.35,0-2.7-.06-4-11.13.35-22.26.68-33.38,1.07-9.81.34-19.61.65-29.4,1.19-3.67.2-5.14-.92-4.85-4.74a78.5,78.5,0,0,0-1.91-22.77c-.75-3.38.37-4.27,3.36-5,19.58-5.14,38.88-11.37,58.85-15a16.1,16.1,0,0,0,2.68-.79A267.41,267.41,0,0,0,566.58,194c-6.61,4-14.11,5.8-21.25,8.44-16.35,6-32.67,12.13-48.6,19.21-2.22,1-3.77,1.08-5.88-.37a41.15,41.15,0,0,0-14.17-6c-2.43-.56-3.49-1.57-3.22-4a5.31,5.31,0,0,0,0-1.49c-1.17-7.08,1.86-11.09,8-15.12,22.17-14.67,44-29.83,66.53-44a275.17,275.17,0,0,0-17.46-28.21q-30.66,23.69-61.31,47.38c-4.65,3.6-4.57,3.62-7.34-1.67-3-5.76-6.24-11.41-10.64-16.23-2.59-2.84-2.47-5.07.05-7.95,16.55-19,32.06-38.85,49.58-57A289.21,289.21,0,0,0,477.5,65.89c-5.5,5.41-9.9,11.76-14.63,17.8-10.73,13.73-21.2,27.67-31.6,41.66-1.91,2.57-3.2,2.62-5.51.72a97.07,97.07,0,0,0-18.27-12c-2.61-1.29-2.6-2.51-1.38-5,9.92-20,19.68-40,29.43-60,1.48-3,2.81-6.15,4.17-9.25A294.06,294.06,0,0,0,412.59,26c-1.95,3.61-2.92,7.67-4.65,11.39-9.8,21.13-18.28,42.84-27.07,64.41-1,2.44-2.14,3.37-4.7,3.3-6.33-.17-12.67-.38-19-.08-4.26.2-5.2-1.41-4.46-5.22,3.1-16,6.11-32,9.15-48q3.9-20.59,7.78-41.18a297.15,297.15,0,0,0-29.29-6.43c-2.26,14.41-4.67,28.8-6.71,43.25-2.53,17.93-5.42,35.79-8.45,53.64-.55,3.23-2,3.92-4.92,3.91q-52.21-.11-104.43-.06c-2,0-4.73.66-4.19-3h0c0-9.48,0-19-.23-28.44-.08-3.33.74-5.17,4-6.88,11-5.82,15.75-20.8,10.93-32.56-5.12-12.52-17.71-19.37-30.18-16C185,21,178,28.25,176.23,39.79c-1.72,11.27,2.51,20.38,11.93,26.56,3.44,2.26,4.43,4.52,4.34,8.36q-.39,16.22-.08,32.44c.06,3.11-.88,4.6-3.67,6a124.46,124.46,0,0,0-44.35,37.07c-5.58,7.48-9.64,15.83-14.71,23.58-.17,1.29,0,2.74-.57,3.86-5.2,10.56-6,21.94-6.23,33.39-.06,2.5-.53,4.07-3.28,4.48-5.11.78-9.41,3.84-14.31,5.23h0c-1.15,1.16-2.2,2.44-3.45,3.48q-17.17,14.31-17.24,36.64,0,33.51,0,67c0,23.16,14,40.46,36.63,45.05,2.68.54,3.36,1.65,3.9,4a91.87,91.87,0,0,0,12.43,29.23c2,3.15,4,6.33,6.58,10.44a81.5,81.5,0,0,1-16-8.86c-20.45-13.8-40.07-28.4-50-52.3-1.14-2.74-3.19-5-5.17-7.3-10.62-12.19-24.75-16.86-40.1-19.1-2.64-.39-3,.6-3.07,2.91-.2,11.26,2.16,21.91,8.16,31.45,8.14,12.95,20.21,18.65,35.28,16.67,5-.65,8,.13,11.17,4.12,4,5.1,9,9.47,14.09,14.72a33.49,33.49,0,0,0-16.43,2.73C71,406.6,65,416,59.82,426.24c-1.2,2.39.55,2.39,2,2.67,6.21,1.19,12.38,2.76,18.65,3.47,12.31,1.4,23.11-1.9,31.4-11.63,1.8-2.12,3.43-6.08,5.22-6.13,2.5-.07,5,2.86,7.62,4.32,9.12,5.12,18,10.9,28.64,12.44,1.75.25,12.34,7.69,11.94,8.65-1.56,3.76-4.58,6.3-8.12,8.23l-1.74,1h0c3.48,2.08,7,4.08,8.88,8h0c3.76-1.92,6.62-5,9.61-7.83,2.1-2,3.74-2.24,5.92-.2,1.8,1.68,3.7,3.6,5.92,4.42,4.9,1.8,5.18,4.19,2.34,8.16S183,469.87,180.5,474c-10,16-17.92,33.43-31.63,46.92q8.82,4.73,18,8.85c7.31-7.11,15.62-12.64,25.8-15.31C200.65,512.31,208.79,512.29,217,512.23ZM575.11,289.54v1.09H515.25v-1.09Zm-13.59,73.51-.67,1.77-51.74-17.57c.18-.51.36-1,.53-1.55C527.28,350.45,544.31,357,561.52,363.05Zm4-151.45.45,1.51-60,20.49-.66-1.95C525.2,224.56,545,216.93,565.48,211.6Zm-92.15,25.86c-.05-3.09,1.46-2.79,3.43-1.92a24.94,24.94,0,0,1,14.06,15.28c1.89,3.67,1.92,7.67,1.92,11.63,0,21.66,0,43.33-.13,65-.1,12.43-6.62,22.71-16.22,26.52-2.47,1-3.52,1-3.47-2.16.36-25.32.59-50.64.87-76C473.64,263.05,473.54,250.25,473.33,237.46Zm62.89-98.63c-20.4,16.48-42.53,30.56-63.75,45.91C492.55,167.8,514.22,153.09,536.22,138.83ZM466.66,392.28c21.26,12.53,41.87,26.09,62.6,39.48l-.93,1.42-62.52-39.54C466.09,393.18,466.38,392.73,466.66,392.28ZM123.6,240c-.5,36.92-.43,73.83,0,110.75,0,4.1-1,4.53-4.29,2.58-9.61-5.63-15.35-13.65-15.45-25-.14-15.14,0-30.27,0-45.41,0-8-.32-15.94,0-23.88.56-12,7.87-21,18.82-24C124.64,236.31,123.62,238.33,123.6,240ZM364,479.3a106.53,106.53,0,0,0-.05,16.47c.3,4.33-.9,5.6-5.42,5.57-32.13-.22-64.26-.12-96.38-.14-3.83,0-7.65-.12-11.48-.18-5.29.86-10.61.07-15.91.26-2,.07-2.54-.75-2.51-2.65.15-7.32.25-14.64.18-22,0-2.56.73-3.15,3.16-2.45,5,1.42,10,2.62,14.94,3.91,28.43,2,56.89.77,85.34.82,7.69,0,15.16-2,22.54-4C362.55,473.86,364.44,474.32,364,479.3ZM427.42,502a82,82,0,0,0-34.23-8.92,3.53,3.53,0,0,1-3.64-2.7c-2.18-6.43-4.51-12.82-6.65-19.27-.77-2.31-.18-4.11,2.46-5.08,3.88-1.43,7.68-3.1,11.48-4.74a2.82,2.82,0,0,1,3.84,1.22Q414.06,482.25,427.42,502ZM488.05,78.65c-15.74,19.1-31.51,38.17-46.83,58.22C441.69,131.21,481.29,81.92,488.05,78.65Zm-82.67-1.07c5.42-13.3,12.72-25.77,17.42-39.39.49-1.41,1.37-3.17,3-2.66,1.38.42.46,1.87,0,2.93Q411.2,69.75,396.68,101c-.88,1.9-1.92,3.72-2.89,5.58l-1.24-.75C396.85,96.45,401.47,87.17,405.38,77.58Zm-51.77-64.3,1.76.29Q347.72,59,340.08,104.5l-1.73-.21C342.28,73.75,348.49,43.61,353.61,13.28ZM202.28,35.39c3.88.19,8.28,4.86,8.19,8.68s-4.48,8.11-8.57,8.1a8.26,8.26,0,0,1-8.3-8.12C193.64,39.85,198.31,35.19,202.28,35.39ZM190.7,134c10.64-6.59,21.9-10.55,34.72-10.47,45.24.29,90.48.16,135.72.2,1.83,0,3.65.17,5.48.25,18-1.5,32.71,6.06,46.21,17-77.29.55-154.45-.48-232.93,1A29.39,29.39,0,0,1,190.7,134ZM144.46,373.6A60,60,0,0,1,142,355.34c-.2-49.32-.37-98.64.28-148,.11-8.12,1.49-15.85,5.19-23.15,7.5-14.8,19.2-23,36-23.44h0c1.53-1,3.24-.61,4.87-.61,62-.06,123.92-.31,185.88,0,12.46.06,24.94.43,37.41.5,24.95.13,41.36,22.67,42.26,41.91.93,20,.29,40,.32,59.95,0,29.31-.53,58.63.21,87.93.58,23.07-7.66,42.37-22.51,59.07-28.56,32.14-64.44,49.09-107.62,49.64-21.15.27-42.32.36-63.45-.23-16.66-.47-32.21-6-47.19-13h0C181,431.05,155.82,408.92,144.46,373.6Zm37.66,122.88c2.16-6,6.25-10.91,9.15-16.46,2.53-4.85,5.44-9.49,8-14.32,1.4-2.66,3-2.95,5.63-1.74,8.3,3.83,8.29,3.74,8,12.83-.14,4.32-.08,8.64-.06,13,0,1.9-.43,3.4-2.7,3.25-9.25-.62-18.13,1.29-26.92,3.87C183,496.94,182.6,496.66,182.12,496.48Z"/><path class="cls-3" d="M299,5.8c.21,22.3-.05,44.59.07,66.88,0,3.48-.94,4.53-4.41,4.53a86.3,86.3,0,0,0-13.4,1.25,221.06,221.06,0,0,0-69.57,23.45h0c-.54,3.67,2.14,3,4.19,3q52.22,0,104.43.06c3,0,4.37-.68,4.92-3.91,3-17.85,5.92-35.71,8.45-53.64,2-14.45,4.45-28.84,6.71-43.25A303.86,303.86,0,0,0,301.64.24C299.61.81,298.94,2.48,299,5.8Z"/><path class="cls-4" d="M377.2,512.68a12.45,12.45,0,0,0-7.06,1.87A46.13,46.13,0,0,1,345.92,521c-15.78-.17-31.57,0-47.36.11l.18,34.75a298.31,298.31,0,0,0,124.93-31.09,52.49,52.49,0,0,0-24.6-11C391.81,512.42,384.49,513,377.2,512.68Z"/><path class="cls-5" d="M103,156.88c17.12,0,31.74-15.13,31.77-32.84a31.3,31.3,0,0,0-31.54-31.59c-18.11,0-32.13,13.44-32.25,30.92C70.85,141.68,85.4,156.92,103,156.88Z"/><path class="cls-6" d="M473.46,209.82a5.31,5.31,0,0,1,0,1.49c-.27,2.44.79,3.45,3.22,4a41.15,41.15,0,0,1,14.17,6c2.11,1.45,3.66,1.36,5.88.37,15.93-7.08,32.25-13.18,48.6-19.21,7.14-2.64,14.64-4.47,21.25-8.44a270,270,0,0,0-18.64-43.28c-22.51,14.16-44.36,29.32-66.53,44C475.32,198.73,472.29,202.74,473.46,209.82Z"/><path class="cls-7" d="M352.72,99.79c-.74,3.81.2,5.42,4.46,5.22,6.32-.3,12.66-.09,19,.08,2.56.07,3.7-.86,4.7-3.3,8.79-21.57,17.27-43.28,27.07-64.41,1.73-3.72,2.7-7.78,4.65-11.39a295.87,295.87,0,0,0-42.94-15.38q-3.9,20.58-7.78,41.18C358.83,67.79,355.82,83.8,352.72,99.79Z"/><path class="cls-3" d="M451.19,152c4.4,4.82,7.62,10.47,10.64,16.23,2.77,5.29,2.69,5.27,7.34,1.67q30.65-23.72,61.31-47.38a280.88,280.88,0,0,0-29.66-35.44c-17.52,18.12-33,38-49.58,57C448.72,146.91,448.6,149.14,451.19,152Z"/><path class="cls-8" d="M406.11,109.08c-1.22,2.46-1.23,3.68,1.38,5a97.07,97.07,0,0,1,18.27,12c2.31,1.9,3.6,1.85,5.51-.72,10.4-14,20.87-27.93,31.6-41.66,4.73-6,9.13-12.39,14.63-17.8a292.14,292.14,0,0,0-37.79-26c-1.36,3.1-2.69,6.21-4.17,9.25C425.79,69.11,416,89.13,406.11,109.08Z"/><path class="cls-9" d="M178.13,474.38c-3.65,3.86-7.1,4-10.89.1a3.44,3.44,0,0,0-1.48-.76c-.41-.07-.84-.14-1.28-.19a1.76,1.76,0,0,0-.93.2c-4.1,2.74-8.83.69-13,2.06-5.85,9-11.18,11.5-19.92,9.25h0c-5.44,3.8-11,7.46-16.29,11.44a12.39,12.39,0,0,1-2,1.22,290.69,290.69,0,0,0,36.53,23.17C162.58,507.38,170.54,490,180.5,474,179.69,474.08,178.57,473.91,178.13,474.38Z"/><path class="cls-10" d="M154.1,446.6c.24-8.33-6.1-12.37-13.58-8.41-1.8,1-2.9,1.12-4.8.12-8.8-4.64-16.7-.09-17,9.79-.06,1.74-.59,1.9-1.88,1.84-4.36-.19-6.58,2.53-8.24,6a13.52,13.52,0,0,1-.57,4.44,1.92,1.92,0,0,1-.29.68l.09,1.87c1.46,6.95,5.92,9.62,12.75,9,3-.27,3.7,1.42,3.21,4h0c1.18,3.87,4.07,6.44,6.85,9.1h0c8.74,2.25,14.07-.23,19.92-9.25.33-1.86.84-3.52,3.05-4.06,7.48-1.83,9.47-4.16,10.18-11.63a26.31,26.31,0,0,1,.6-2.88h0c-1.85-3.91-5.4-5.91-8.88-8h0C152.94,449.44,154.06,447.67,154.1,446.6Zm-25.82,13.92a7.16,7.16,0,0,1,14.3-.18,7.8,7.8,0,0,1-7.43,7.34A7.17,7.17,0,0,1,128.28,460.52Z"/><path class="cls-11" d="M123.74,475.94h0c.49-2.58-.23-4.27-3.21-4-6.83.63-11.29-2-12.75-9-.62-.53-1.49-1.65-1.83-1.51-5.59,2.34-10.23-1.52-14.81-3.06-3.32-1.11-6.82-2.27-10.19-3.55-4.7-1.79-6,3.53-9.48,4.3a.94.94,0,0,0-.54,1,287.25,287.25,0,0,0,31.41,29.77ZM80.06,461.68c-.83.51-2.48,2.2-3.1,0-.54-1.86,1.52-2.27,2.86-2.58,2.24-.53,3.67.7,4.91,3.33C82.76,461.91,81.69,460.7,80.06,461.68Z"/><path class="cls-12" d="M105.3,220.77h0c4.9-1.39,9.2-4.45,14.31-5.23,2.75-.41,3.22-2,3.28-4.48.28-11.45,1-22.83,6.23-33.39.54-1.12.4-2.57.57-3.86A138.23,138.23,0,0,0,116.94,194C112.38,202.59,107.2,211,105.3,220.77Z"/><path class="cls-13" d="M39.24,276.85a9.82,9.82,0,0,0,.46-19.63,10,10,0,0,0-10.1,9.65A9.7,9.7,0,0,0,39.24,276.85Z"/><path class="cls-14" d="M46.34,218.31c4.93.16,9-3.37,9.18-7.86A8.36,8.36,0,0,0,47,202a8.11,8.11,0,0,0-8.25,8.16A7.83,7.83,0,0,0,46.34,218.31Z"/><path class="cls-11" d="M103.31,456.75c1.19,1.85,4.21,1.66,4.38,4.33a4.48,4.48,0,0,0,.29-.68,13.52,13.52,0,0,0,.57-4.44C107.05,457.44,104.84,454.82,103.31,456.75Z"/><path class="cls-1" d="M213.69,445.93h0c26.15,0,52.29.05,78.44-.07,38.19-.16,77-31.55,84.84-68.84,2.2-10.47,1.57-21.2.86-31.84-.2-3.06-2.5-2.07-4.12-2.08-13.32-.05-26.65,0-40,0q-64.22,0-128.43,0c-2.26,0-4.68.68-6.76-.92h0c-21.46-4.59-33.15-19.4-33.06-41.54.09-21.12-.09-42.23-.07-63.35,0-13.19,5.1-23.83,16.22-31.3,7.05-6.65,16-7.8,25-7.82q83.13-.19,166.24-.1c1.83,0,3.65-.15,5.48-.23h0c.2-11.16.21-22.31-.32-33.46-.18-3.72-2.22-3.34-4.59-3.33H304.93q-58.23,0-116.46.06c-1.65,0-3.3-.2-5-.3-16.83.4-28.53,8.64-36,23.44-3.7,7.3-5.08,15-5.19,23.15-.65,49.32-.48,98.64-.28,148a60,60,0,0,0,2.45,18.26c11.36,35.32,36.52,57.45,69.23,72.33Zm46.83-57.52a9.76,9.76,0,0,1,11-5.84c17.21,2.88,34.43,1.85,51.65.34,5.27-.47,9.67,1.92,11.2,6.38a10.08,10.08,0,0,1-5.19,12.25c-4.78,2.54-10.08,3.35-15.41,3.53s-10.66,0-16,0c-8-.33-16,.52-23.88-1.07a24.49,24.49,0,0,1-9.7-3.73C260.11,397.36,258.73,392.71,260.52,388.41Z"/><path class="cls-4" d="M304.93,161h68.48c2.37,0,4.41-.39,4.59,3.33.53,11.15.52,22.3.32,33.46h0c5.24,0,10.48.05,15.71.16,1.57,0,3.33-.54,4.6,1,4.82,1.75,9.79,3,14.38,5.49,12.28,6.75,18.31,17.24,18.47,30.91.26,22.65.12,45.3,0,67.95-.12,22.91-16.21,38.93-39.12,38.93q-96.9,0-193.81-.09c2.08,1.6,4.5.92,6.76.92q64.21.06,128.43,0c13.32,0,26.65,0,40,0,1.62,0,3.92-1,4.12,2.08.71,10.64,1.34,21.37-.86,31.84-7.83,37.29-46.65,68.68-84.84,68.84-26.15.12-52.29.06-78.44.07h0c15,7.06,30.53,12.57,47.19,13,21.13.59,42.3.5,63.45.23,43.18-.55,79.06-17.5,107.62-49.64,14.85-16.7,23.09-36,22.51-59.07-.74-29.3-.18-58.62-.21-87.93,0-20,.61-40-.32-59.95-.9-19.24-17.31-41.78-42.26-41.91-12.47-.07-24.95-.44-37.41-.5-62-.33-123.92-.08-185.88,0-1.63,0-3.34-.39-4.87.61h0c1.66.1,3.31.3,5,.3Q246.7,161.08,304.93,161Z"/><path class="cls-15" d="M456.32,408.42a164.6,164.6,0,0,1-13.54,18.42c-3,3.39-2,4.79.67,7.38,15.54,15,30.92,30.18,46.33,45.33A284.37,284.37,0,0,0,520.34,447c-18.72-13.29-37.51-26.5-56-40.09C460.27,403.88,458.75,404.71,456.32,408.42Z"/><path class="cls-16" d="M500.13,360c-6.92,7.34-15.9,10.63-25.37,12.87-3.73.88-2.77,4.15-3.65,6.39-.77,2,1.14,2.94,2.66,3.58,8.16,3.43,15.58,8.21,23.09,12.81,13.93,8.53,28.23,16.45,41.73,25.7a272.9,272.9,0,0,0,21-40.58l-53.88-21.2C503.79,358.78,501.76,358.24,500.13,360Z"/><path class="cls-17" d="M513.83,243.65c-3,.78-4.11,1.67-3.36,5a78.5,78.5,0,0,1,1.91,22.77c-.29,3.82,1.18,4.94,4.85,4.74,9.79-.54,19.59-.85,29.4-1.19,11.12-.39,22.25-.72,33.38-1.07a268,268,0,0,0-4.65-46.07,16.1,16.1,0,0,1-2.68.79C552.71,232.28,533.41,238.51,513.83,243.65Z"/><path class="cls-18" d="M358.42,475c-7.38,2-14.85,4-22.54,4-28.45-.05-56.91,1.22-85.34-.82q.08,11.44.14,22.89c3.83.06,7.65.18,11.48.18,32.12,0,64.25-.08,96.38.14,4.52,0,5.72-1.24,5.42-5.57A106.53,106.53,0,0,1,364,479.3C364.44,474.32,362.55,473.86,358.42,475Z"/><path class="cls-19" d="M511.86,308.22c0,6.66.21,13.33-.12,20-.18,3.55,1.19,4.84,4.38,5.87,16.92,5.41,33.83,10.87,51,15.48a8.87,8.87,0,0,1,2.93,1.09A265.16,265.16,0,0,0,578.26,309c-20.09-3.61-40.45-4.48-60.76-6C513.21,302.61,511.85,304.41,511.86,308.22Z"/><path class="cls-20" d="M475.56,486.33c-13.45-15-28.15-28.85-42.14-43.35-2.38-2.47-4.06-3.82-7.15-.61a47.74,47.74,0,0,1-12.1,8.72c-3.24,1.72-3.47,3.44-1.24,6.46,12.23,16.59,24,33.52,35.07,50.89.41.64.88,1.25,1.35,1.86a289.3,289.3,0,0,0,29.14-21C477.49,488.32,476.48,487.37,475.56,486.33Z"/><path class="cls-21" d="M217.4,134.79c33.11,0,66.24.31,99.34-.21,19-.3,37.93-.19,56.89-.43,1.07,0,2.3.47,3.41-.72-2.27-4.46-6.62-6.64-10.42-9.41-1.83-.08-3.65-.25-5.48-.25-45.24,0-90.48.09-135.72-.2-12.82-.08-24.08,3.88-34.72,10.47C199.58,135.08,208.5,134.78,217.4,134.79Z"/><path class="cls-22" d="M412.83,141.07c-13.5-11-28.17-18.55-46.21-17,3.8,2.77,8.15,5,10.42,9.41-1.11,1.19-2.34.71-3.41.72-19,.24-37.92.13-56.89.43-33.1.52-66.23.24-99.34.21-8.9,0-17.82.29-26.7-.75a29.39,29.39,0,0,0-10.8,8.07C258.38,140.59,335.54,141.62,412.83,141.07Z"/><path class="cls-23" d="M476.39,354c9.6-3.81,16.12-14.09,16.22-26.52.16-21.66.14-43.33.13-65,0-4,0-8-1.92-11.63-7.1,7.37-11.46,16.61-17,25h0c-.28,25.32-.51,50.64-.87,76C472.87,355,473.92,355,476.39,354Z"/><path class="cls-24" d="M122.66,235c0,8,.12,15.91.16,23.87,0,1.62.37,3.44-1.34,4.51C114.92,267.46,111.24,274,107,280.1c-.79,1.11-1.26,2.84-3.17,2.78h0c0,15.14-.12,30.27,0,45.41.1,11.35,5.84,19.37,15.45,25,3.33,1.95,4.34,1.52,4.29-2.58-.38-36.92-.45-73.83,0-110.75C123.62,238.33,124.64,236.31,122.66,235Z"/><path class="cls-25" d="M396.84,461.29c-3.8,1.64-7.6,3.31-11.48,4.74-2.64,1-3.23,2.77-2.46,5.08,2.14,6.45,4.47,12.84,6.65,19.27a3.53,3.53,0,0,0,3.64,2.7A82,82,0,0,1,427.42,502q-13.37-19.74-26.74-39.49A2.82,2.82,0,0,0,396.84,461.29Z"/><path class="cls-26" d="M210.12,493c2.27.15,2.71-1.35,2.7-3.25,0-4.32-.08-8.64.06-13,.3-9.09.31-9-8-12.83-2.64-1.21-4.23-.92-5.63,1.74-2.55,4.83-5.46,9.47-8,14.32-2.9,5.55-7,10.47-9.15,16.46.48.18.83.46,1.08.39C192,494.29,200.87,492.38,210.12,493Z"/><path class="cls-27" d="M163.74,460.1c-.71,7.47-2.7,9.8-10.18,11.63-2.21.54-2.72,2.2-3.05,4.06,4.21-1.37,8.94.68,13-2.06a1.76,1.76,0,0,1,.93-.2,4.9,4.9,0,0,1,1.28.19,3.44,3.44,0,0,1,1.48.76c3.79,3.92,7.24,3.76,10.89-.1.44-.47,1.56-.3,2.37-.43,2.52-4.08,4.85-8.3,7.63-12.19s2.56-6.36-2.34-8.16c-2.22-.82-4.12-2.74-5.92-4.42-2.18-2-3.82-1.79-5.92.2-3,2.84-5.85,5.91-9.61,7.83h0A26.31,26.31,0,0,0,163.74,460.1Z"/><path class="cls-28" d="M107,280.1c4.28-6.08,8-12.64,14.52-16.75,1.71-1.07,1.34-2.89,1.34-4.51,0-8-.11-15.91-.16-23.87-11,3-18.26,12-18.82,24-.37,7.94-.06,15.92,0,23.88h0C105.7,282.94,106.17,281.21,107,280.1Z"/><path class="cls-28" d="M235.6,474.22c-2.43-.7-3.19-.11-3.16,2.45.07,7.32,0,14.64-.18,22,0,1.9.55,2.72,2.51,2.65,5.3-.19,10.62.6,15.91-.26q-.06-11.44-.14-22.89C245.56,476.84,240.55,475.64,235.6,474.22Z"/><path class="cls-28" d="M490.82,250.82a24.94,24.94,0,0,0-14.06-15.28c-2-.87-3.48-1.17-3.43,1.92.21,12.79.31,25.59.46,38.38h0C479.36,267.43,483.72,258.19,490.82,250.82Z"/><path class="cls-29" d="M201.9,52.17c4.09,0,8.47-4.13,8.57-8.1s-4.31-8.49-8.19-8.68-8.64,4.46-8.68,8.66A8.26,8.26,0,0,0,201.9,52.17Z"/><path class="cls-30" d="M355.37,13.57l-1.76-.29c-5.12,30.33-11.33,60.47-15.26,91l1.73.21Q347.72,59,355.37,13.57Z"/><path class="cls-31" d="M472.47,184.74c21.22-15.35,43.35-29.43,63.75-45.91C514.22,153.09,492.55,167.8,472.47,184.74Z"/><path class="cls-32" d="M396.68,101q14.56-31.28,29.1-62.58c.5-1.06,1.42-2.51,0-2.93-1.65-.51-2.53,1.25-3,2.66-4.7,13.62-12,26.09-17.42,39.39-3.91,9.59-8.53,18.87-12.83,28.29l1.24.75C394.76,104.76,395.8,102.94,396.68,101Z"/><path class="cls-33" d="M441.22,136.87c15.32-20.05,31.09-39.12,46.83-58.22C481.29,81.92,441.69,131.21,441.22,136.87Z"/><path class="cls-34" d="M565.93,213.11l-.45-1.51c-20.53,5.33-40.28,13-60.22,20.05l.66,1.95Z"/><path class="cls-35" d="M529.26,431.76c-20.73-13.39-41.34-26.95-62.6-39.48-.28.45-.57.9-.85,1.36l62.52,39.54Z"/><path class="cls-36" d="M575.11,290.63v-1.09H515.25v1.09Z"/><path class="cls-37" d="M509.11,347.25l51.74,17.57.67-1.77c-17.21-6-34.24-12.6-51.88-17.35C509.47,346.22,509.29,346.74,509.11,347.25Z"/><path class="cls-38" d="M130.59,485h0c-2.78-2.66-5.67-5.23-6.85-9.1h0l-21.4,14q4.91,4,10,7.79a12.39,12.39,0,0,0,2-1.22C119.6,492.5,125.15,488.84,130.59,485Z"/><path class="cls-39" d="M135.15,467.68a7.8,7.8,0,0,0,7.43-7.34,7.16,7.16,0,0,0-14.3.18A7.17,7.17,0,0,0,135.15,467.68Z"/><path class="cls-1" d="M79.82,459.14c-1.34.31-3.4.72-2.86,2.58.62,2.16,2.27.47,3.1,0,1.63-1,2.7.23,4.67.79C83.49,459.84,82.06,458.61,79.82,459.14Z"/><path class="cls-40" d="M392.36,342.24c22.91,0,39-16,39.12-38.93.12-22.65.26-45.3,0-67.95-.16-13.67-6.19-24.16-18.47-30.91-4.59-2.52-9.56-3.74-14.38-5.49-5.49,0-11,0-16.47.1-1.45,0-3.3-.29-3.18,2,.21,3.86-2.49,3.13-4.73,3.13q-83.69,0-167.38,0c-8.46,0-16.93-.36-25.23,1.77-11.12,7.47-16.21,18.11-16.22,31.3,0,21.12.16,42.23.07,63.35-.09,22.14,11.6,36.95,33.06,41.54h0Q295.47,342.21,392.36,342.24Zm-58-75.3c3.28-4,6.84-7.7,10.31-11.51s6.9-7.66,10.5-11.36c5.47-5.62,10.55-5.75,15.93-.24q9.93,10.15,19.53,20.66c4.22,4.61,4.32,9.95.61,13.29s-8.5,2.81-12.84-1.54c-4.1-4.12-8.15-8.32-12-12.71-2.2-2.54-3.61-3-6-.13-3.92,4.74-8.28,9.1-12.47,13.6a10.41,10.41,0,0,1-7.53,3.71,7.84,7.84,0,0,1-7.13-4.41A8.25,8.25,0,0,1,334.38,266.94Zm-128.94-1.36c6.63-7.45,13.36-14.82,20.28-22,4.95-5.15,10.17-5.09,15.21,0,6.74,6.9,13.3,14,19.88,21,1.85,2,3.18,4.28,3.06,6.78,0,3.69-1.53,6.12-4.45,7.58-3.56,1.78-7,1-9.69-1.58-3.52-3.28-6.75-6.88-10.07-10.38-6.31-6.66-6.3-6.67-12.7.24-3.05,3.29-6,6.69-9.17,9.85-4.31,4.3-9.22,4.72-12.84,1.36S201.45,270.05,205.44,265.58Z"/><path class="cls-2" d="M264.2,400.3a24.49,24.49,0,0,0,9.7,3.73c7.91,1.59,15.92.74,23.88,1.07,5.33,0,10.66.15,16,0s10.63-1,15.41-3.53a10.08,10.08,0,0,0,5.19-12.25c-1.53-4.46-5.93-6.85-11.2-6.38-17.22,1.51-34.44,2.54-51.65-.34a9.76,9.76,0,0,0-11,5.84C258.73,392.71,260.11,397.36,264.2,400.3Z"/><path class="cls-41" d="M206.87,204.19q83.69,0,167.38,0c2.24,0,4.94.73,4.73-3.13-.12-2.32,1.73-2,3.18-2,5.49-.06,11-.07,16.47-.1-1.27-1.53-3-1-4.6-1-5.23-.11-10.47-.12-15.71-.16h0c-1.83.08-3.65.23-5.48.23q-83.11,0-166.24.1c-9,0-17.91,1.17-25,7.82C189.94,203.83,198.41,204.18,206.87,204.19Z"/><path class="cls-1" d="M340.44,280.71A10.41,10.41,0,0,0,348,277c4.19-4.5,8.55-8.86,12.47-13.6,2.41-2.92,3.82-2.41,6,.13,3.81,4.39,7.86,8.59,12,12.71,4.34,4.35,9.18,4.83,12.84,1.54s3.61-8.68-.61-13.29q-9.6-10.49-19.53-20.66c-5.38-5.51-10.46-5.38-15.93.24-3.6,3.7-7,7.55-10.5,11.36s-7,7.54-10.31,11.51a8.25,8.25,0,0,0-1.07,9.36A7.84,7.84,0,0,0,340.44,280.71Z"/><path class="cls-1" d="M217.79,277.14c3.18-3.16,6.12-6.56,9.17-9.85,6.4-6.91,6.39-6.9,12.7-.24,3.32,3.5,6.55,7.1,10.07,10.38,2.74,2.56,6.13,3.36,9.69,1.58,2.92-1.46,4.46-3.89,4.45-7.58.12-2.5-1.21-4.8-3.06-6.78-6.58-7-13.14-14.12-19.88-21-5-5.14-10.26-5.2-15.21,0-6.92,7.18-13.65,14.55-20.28,22-4,4.47-4,9.64-.49,12.92S213.48,281.44,217.79,277.14Z"/></svg>